<svg xmlns="http://www.w3.org/2000/svg" width="135.341" height="107.682" viewBox="0 0 135.341 107.682"><g transform="matrix(0.94, 0.342, -0.342, 0.94, 32.649, -20.408)" opacity="0.42"><path d="M26.55,40.28S4.344,60.821,3.789,61.376s-.235,6.339,6.43.649,9.069-8.605,21.464-4.117c7.9,2.859,30.533,16.793,46.635,13.046s19.843-21.1,19.843-21.1V48.191s-20.953-2.776-37.194-7.216S36.679,36.534,26.55,40.28Z" transform="translate(0 26.271)" fill="none" stroke="#dfd5d5" stroke-miterlimit="10" stroke-width="4"/><path d="M87.256,71.947C94.073,70.549,101,69.439,101,69.439s-.422-20.963-1.24-29.556C98.915,31.264,89.768,19.74,77.685,14.9A43.259,43.259,0,0,0,66.65,12.236,61.455,61.455,0,0,0,54.169,12.1a59.98,59.98,0,0,0-23.114,6.686C19.437,25.07,16.4,52.12,15.618,63.644" transform="translate(10.903 2.944)" fill="none" stroke="#dfd5d5" stroke-miterlimit="10" stroke-width="4"/><path d="M48.644,13.8a4.158,4.158,0,0,1-.242,1.377,61.455,61.455,0,0,0-12.481-.134,3.926,3.926,0,0,1-.2-1.242c0-2.865,2.888-5.2,6.461-5.2S48.644,10.935,48.644,13.8Z" transform="translate(29.15 0)" fill="none" stroke="#dfd5d5" stroke-miterlimit="10" stroke-width="4"/></g></svg>