<svg xmlns="http://www.w3.org/2000/svg" width="146.593" height="147.305" viewBox="0 0 146.593 147.305"><path d="M158.139,121.056a37.755,37.755,0,0,0,.266-4.071c0-5.782-.974-5.812-4.72-5.812H131.411a21.027,21.027,0,0,0,3.393-10.915c0-11.181-16.9-16.639-16.9-25.961,0-3.452,1.5-6.284,2.744-10.3a19.414,19.414,0,0,0-13.984,18.173c0,14.249,16.609,14.367,16.609,25.017a29.856,29.856,0,0,1-.62,3.983H106.157a10.8,10.8,0,0,0,.384-2.744c0-6.726-11.535-10-11.535-15.577a22.3,22.3,0,0,1,.944-6.2c-3.806,1.5-8.349,5.9-8.349,10.856,0,7.877,9.411,8.644,10.856,13.659H68.72c-3.747,0-4.72.03-4.72,5.812s2.272,18.084,8.349,32.746,13.1,21.123,18.055,25.43l.029-.059a8.389,8.389,0,0,0,5.664,2.154h30.209a8.389,8.389,0,0,0,5.664-2.154l.03.059a60.945,60.945,0,0,0,9.263-9.706,27.342,27.342,0,0,0,4.543,1.475,31.768,31.768,0,0,0,7.316.885,23.582,23.582,0,0,0,24.162-23.6A23.641,23.641,0,0,0,158.139,121.056Zm-5.015,37.408a15.05,15.05,0,0,1-6.52-1.239c1.18-2.36,2.331-4.691,3.452-7.4a131.39,131.39,0,0,0,6.372-19.412,14.182,14.182,0,0,1,11.417,13.9C167.845,151,162.77,158.463,153.124,158.463Z" transform="translate(-9.57 -75.043) rotate(16)" fill="none" stroke="#fff" stroke-width="5" opacity="0.42"/></svg>