<svg xmlns="http://www.w3.org/2000/svg" width="184.807" height="108.632" viewBox="0 0 184.807 108.632"><path d="M181.617,32.2q-6.932-.959-21.725-7.524a85.85,85.85,0,0,0-31.328,0q-5.454.107-15.318,6.494c-2.632,1.809-5.053,1.237-7.317-1.715H85.53q-3.361,4.427-7.313,1.715c-6.565-4.253-11.682-6.422-15.3-6.494a85.951,85.951,0,0,0-31.347,0Q16.782,31.227,9.845,32.2c-.936,1.508-1.166,4.207-.711,8.1,2.726,2.4,4.095,4.734,4.095,7.02q1.134,17.5,8.667,27.715,7.377,12.453,23.117,14.04Q74.306,90.822,84.939,61.1q3.632-11.523,1.575-18.018c-.113-4.162,2.97-6.309,9.216-6.471,6.264.158,9.329,2.309,9.238,6.471q-2.059,6.48,1.579,18.018,10.592,29.706,39.92,27.967,15.713-1.613,23.12-14.04,7.541-10.22,8.644-27.715c0-2.286,1.369-4.617,4.113-7.02Q183.029,34.461,181.617,32.2ZM72.772,76.536q-14.343,13.857-32.2,9.558-17.738-9.43-21.406-24.925-2.436-13.446,4.711-24.079Q33.108,25.7,54.5,27.644,78.478,30.836,81.6,45.437,85.471,60.8,72.772,76.536ZM172.3,61.168q-3.7,15.5-21.424,24.925-17.834,4.32-32.174-9.558-12.69-15.741-8.847-31.1,3.119-14.613,27.117-17.792,21.4-1.918,30.6,9.445Q174.743,47.719,172.3,61.168Z" transform="matrix(0.966, -0.259, 0.259, 0.966, -14.617, 24.811)" fill="#fff" opacity="0.42"/></svg>