<svg xmlns="http://www.w3.org/2000/svg" width="167.958" height="167.958" viewBox="0 0 167.958 167.958"><path d="M112.708,66.6a7.685,7.685,0,0,0-7.685-7.685V43.546a43.546,43.546,0,1,0-87.092,0V58.916A7.685,7.685,0,0,0,10.246,66.6a10.246,10.246,0,0,0,0,20.492,7.685,7.685,0,0,0,7.685,7.685H28.177a2.562,2.562,0,0,0,2.562-2.562V61.477a2.562,2.562,0,0,0-2.562-2.562H23.054V43.546a38.423,38.423,0,0,1,76.846,0V58.916H94.777a2.562,2.562,0,0,0-2.562,2.562V92.216a2.562,2.562,0,0,0,2.562,2.562H99.9V99.9a12.808,12.808,0,0,1-12.808,12.808H73.824a7.685,7.685,0,0,0-7.224-5.123H56.354a7.685,7.685,0,1,0,0,15.369H66.6a7.685,7.685,0,0,0,7.224-5.123H87.092A17.931,17.931,0,0,0,105.023,99.9V94.777a7.685,7.685,0,0,0,7.685-7.685,10.246,10.246,0,0,0,0-20.492ZM5.123,76.846a5.123,5.123,0,0,1,5.123-5.123V81.969A5.123,5.123,0,0,1,5.123,76.846ZM25.615,89.654H17.931a2.562,2.562,0,0,1-2.562-2.562V66.6a2.562,2.562,0,0,1,2.562-2.562h7.685ZM66.6,117.831H56.354a2.562,2.562,0,1,1,0-5.123H66.6a2.562,2.562,0,1,1,0,5.123Zm40.985-30.739a2.562,2.562,0,0,1-2.562,2.562H97.339V64.039h7.685a2.562,2.562,0,0,1,2.562,2.562Zm5.123-5.123V71.723a5.123,5.123,0,1,1,0,10.246Z" transform="translate(0 61.477) rotate(-30)" fill="#fff" opacity="0.42"/></svg>