<svg xmlns="http://www.w3.org/2000/svg" width="153.248" height="144.574" viewBox="0 0 153.248 144.574"><g transform="translate(-23.084 33.973) rotate(-25)" opacity="0.42"><path d="M135.569,95.339H2.086A2.086,2.086,0,0,1,0,93.253V30.013a2.086,2.086,0,0,1,2.086-2.086H135.569a2.086,2.086,0,0,1,2.086,2.086V93.255A2.085,2.085,0,0,1,135.569,95.339ZM4.171,91.169H133.483V32.1H4.171Z" transform="translate(0 26.695)" fill="#fff"/><path d="M14.694,44.847H5.959a2.086,2.086,0,0,1-2.086-2.086V34.028a2.086,2.086,0,0,1,2.086-2.086H14.7a2.086,2.086,0,0,1,2.086,2.086v8.733A2.087,2.087,0,0,1,14.694,44.847ZM8.046,40.677H12.61v-4.56H8.046Zm22.089,4.171H21.4a2.086,2.086,0,0,1-2.086-2.086V34.028A2.086,2.086,0,0,1,21.4,31.942h8.735a2.086,2.086,0,0,1,2.086,2.086v8.733A2.084,2.084,0,0,1,30.135,44.847Zm-6.648-4.171h4.564v-4.56H23.487Zm22.089,4.171H36.839a2.086,2.086,0,0,1-2.086-2.086V34.028a2.086,2.086,0,0,1,2.086-2.086h8.737a2.086,2.086,0,0,1,2.086,2.086v8.733A2.084,2.084,0,0,1,45.576,44.847Zm-6.648-4.171h4.564v-4.56H38.928Zm22.089,4.171H52.282A2.086,2.086,0,0,1,50.2,42.761V34.028a2.086,2.086,0,0,1,2.086-2.086h8.737a2.086,2.086,0,0,1,2.086,2.086v8.733A2.087,2.087,0,0,1,61.017,44.847Zm-6.65-4.171h4.564v-4.56H54.367Zm22.092,4.171H67.721a2.086,2.086,0,0,1-2.086-2.086V34.028a2.086,2.086,0,0,1,2.086-2.086h8.737a2.086,2.086,0,0,1,2.086,2.086v8.733A2.084,2.084,0,0,1,76.458,44.847Zm-6.65-4.171h4.564v-4.56H69.808ZM91.9,44.847H83.162a2.086,2.086,0,0,1-2.086-2.086V34.028a2.086,2.086,0,0,1,2.086-2.086H91.9a2.086,2.086,0,0,1,2.086,2.086v8.733A2.084,2.084,0,0,1,91.9,44.847Zm-6.65-4.171h4.564v-4.56H85.249Zm37.535,4.171H98.606a2.086,2.086,0,0,1-2.086-2.086V34.028a2.086,2.086,0,0,1,2.086-2.086h24.178a2.086,2.086,0,0,1,2.086,2.086v8.733A2.084,2.084,0,0,1,122.784,44.847ZM100.69,40.677H120.7v-4.56H100.69Zm-86,22.788H5.959a2.086,2.086,0,0,1-2.086-2.086V52.646A2.086,2.086,0,0,1,5.959,50.56H14.7a2.086,2.086,0,0,1,2.086,2.086v8.733A2.089,2.089,0,0,1,14.694,63.465ZM8.046,59.292H12.61v-4.56H8.046Zm22.089,4.173H21.4a2.086,2.086,0,0,1-2.086-2.086V52.646A2.086,2.086,0,0,1,21.4,50.56h8.735a2.086,2.086,0,0,1,2.086,2.086v8.733A2.086,2.086,0,0,1,30.135,63.465Zm-6.648-4.173h4.564v-4.56H23.487Zm22.089,4.173H36.839a2.086,2.086,0,0,1-2.086-2.086V52.646a2.086,2.086,0,0,1,2.086-2.086h8.737a2.086,2.086,0,0,1,2.086,2.086v8.733A2.086,2.086,0,0,1,45.576,63.465Zm-6.648-4.173h4.564v-4.56H38.928Zm22.089,4.173H52.282A2.086,2.086,0,0,1,50.2,61.379V52.646a2.086,2.086,0,0,1,2.086-2.086h8.737a2.086,2.086,0,0,1,2.086,2.086v8.733A2.089,2.089,0,0,1,61.017,63.465Zm-6.65-4.173h4.564v-4.56H54.367Zm22.092,4.173H67.721a2.086,2.086,0,0,1-2.086-2.086V52.646a2.086,2.086,0,0,1,2.086-2.086h8.737a2.086,2.086,0,0,1,2.086,2.086v8.733A2.086,2.086,0,0,1,76.458,63.465Zm-6.65-4.173h4.564v-4.56H69.808ZM91.9,63.465H83.162a2.086,2.086,0,0,1-2.086-2.086V52.646a2.086,2.086,0,0,1,2.086-2.086H91.9a2.086,2.086,0,0,1,2.086,2.086v8.733A2.086,2.086,0,0,1,91.9,63.465Zm-6.65-4.173h4.564v-4.56H85.249Zm22.092,4.173H98.606a2.086,2.086,0,0,1-2.086-2.086V52.646a2.086,2.086,0,0,1,2.086-2.086h8.735a2.086,2.086,0,0,1,2.086,2.086v8.733A2.086,2.086,0,0,1,107.34,63.465Zm-6.65-4.173h4.564v-4.56H100.69Zm22.094,4.173h-8.737a2.086,2.086,0,0,1-2.086-2.086V52.646a2.086,2.086,0,0,1,2.086-2.086h8.737a2.086,2.086,0,0,1,2.086,2.086v8.733A2.086,2.086,0,0,1,122.784,63.465Zm-6.653-4.173H120.7v-4.56h-4.566Z" transform="translate(4.457 31.316)" fill="#fff"/><g transform="translate(8.33 100.491)"><path d="M14.694,62.156H5.959A2.086,2.086,0,0,1,3.873,60.07v-8.73a2.086,2.086,0,0,1,2.086-2.086H14.7a2.086,2.086,0,0,1,2.086,2.086v8.73A2.089,2.089,0,0,1,14.694,62.156ZM8.046,57.986H12.61V53.428H8.046Z" transform="translate(-3.873 -49.253)" fill="#fff"/></g><g transform="translate(23.771 100.491)"><path d="M21.873,62.156H13.138a2.086,2.086,0,0,1-2.086-2.086v-8.73a2.086,2.086,0,0,1,2.086-2.086h8.735a2.086,2.086,0,0,1,2.086,2.086v8.73A2.086,2.086,0,0,1,21.873,62.156Zm-6.648-4.171h4.564V53.428H15.225Z" transform="translate(-11.052 -49.253)" fill="#fff"/></g><g transform="translate(39.21 100.491)"><path d="M29.053,62.156H20.316A2.086,2.086,0,0,1,18.23,60.07v-8.73a2.086,2.086,0,0,1,2.086-2.086h8.737a2.086,2.086,0,0,1,2.086,2.086v8.73A2.086,2.086,0,0,1,29.053,62.156ZM22.4,57.986h4.564V53.428H22.4Z" transform="translate(-18.23 -49.253)" fill="#fff"/></g><g transform="translate(54.653 100.491)"><path d="M51.672,62.156H27.5A2.086,2.086,0,0,1,25.41,60.07v-8.73A2.086,2.086,0,0,1,27.5,49.253H51.672a2.086,2.086,0,0,1,2.086,2.086v8.73A2.086,2.086,0,0,1,51.672,62.156ZM29.581,57.986H49.586V53.428H29.581v4.558Z" transform="translate(-25.41 -49.253)" fill="#fff"/></g><g transform="translate(85.533 100.491)"><path d="M50.59,62.156H41.853a2.086,2.086,0,0,1-2.086-2.086v-8.73a2.086,2.086,0,0,1,2.086-2.086H50.59a2.086,2.086,0,0,1,2.086,2.086v8.73A2.086,2.086,0,0,1,50.59,62.156Zm-6.65-4.171H48.5V53.428H43.94Z" transform="translate(-39.767 -49.253)" fill="#fff"/></g><g transform="translate(100.977 100.491)"><path d="M57.768,62.156H49.033a2.086,2.086,0,0,1-2.086-2.086v-8.73a2.086,2.086,0,0,1,2.086-2.086h8.735a2.086,2.086,0,0,1,2.086,2.086v8.73A2.086,2.086,0,0,1,57.768,62.156Zm-6.65-4.171h4.564V53.428H51.118Z" transform="translate(-46.947 -49.253)" fill="#fff"/></g><g transform="translate(116.418 100.491)"><path d="M64.949,62.156H56.212a2.086,2.086,0,0,1-2.086-2.086v-8.73a2.086,2.086,0,0,1,2.086-2.086h8.737a2.086,2.086,0,0,1,2.086,2.086v8.73A2.086,2.086,0,0,1,64.949,62.156ZM58.3,57.986h4.566V53.428H58.3Z" transform="translate(-54.126 -49.253)" fill="#fff"/></g><g transform="translate(58.207 43.661)"><path d="M46.215,37.973a2.086,2.086,0,0,1-2.086-2.086V27H31.235v8.885a2.086,2.086,0,1,1-4.173,0V24.917a2.086,2.086,0,0,1,2.086-2.086H46.215A2.086,2.086,0,0,1,48.3,24.917V35.887A2.084,2.084,0,0,1,46.215,37.973Z" transform="translate(-27.062 -22.831)" fill="#fff"/></g><g transform="translate(66.269 4.731)"><path d="M33.367,47.834a2.088,2.088,0,0,1-2.082-1.985l-.458-9.515a14.175,14.175,0,0,1,8.831-13.809l5.014-2.03A10.028,10.028,0,0,0,50.219,7.578,2.086,2.086,0,1,1,54.1,6.053a14.211,14.211,0,0,1-7.866,18.3l-5.012,2.03A10,10,0,0,0,35,36.129l.458,9.518A2.084,2.084,0,0,1,33.47,47.83.829.829,0,0,1,33.367,47.834Z" transform="translate(-30.81 -4.731)" fill="#fff"/></g></g></svg>