<svg xmlns="http://www.w3.org/2000/svg" width="149.328" height="137.412" viewBox="0 0 149.328 137.412"><g transform="translate(47.595 -12.346) rotate(31)" opacity="0.42"><path d="M112.835,74.521V14.177A2.177,2.177,0,0,0,110.658,12H19.237a2.177,2.177,0,0,0-2.177,2.177V74.521L4.31,95.771a2.177,2.177,0,0,0,1.866,3.3H123.718a2.177,2.177,0,0,0,1.866-3.3ZM21.414,16.353h87.068V72.948H21.414ZM10.021,94.715,20.47,77.3h88.956l10.449,17.414Z" transform="translate(0 0)" fill="#fff"/><path d="M55.165,15.636a2.286,2.286,0,0,0-.631,1.545,2.246,2.246,0,0,0,.631,1.545,2.185,2.185,0,1,0,0-3.091ZM31.679,78.129A2.177,2.177,0,0,0,29.5,75.952h-6.53a2.177,2.177,0,0,0,0,4.353H29.5A2.177,2.177,0,0,0,31.679,78.129Zm15.237,0a2.177,2.177,0,0,0-2.177-2.177h-6.53a2.177,2.177,0,1,0,0,4.353h6.53A2.177,2.177,0,0,0,46.916,78.129Zm6.53,2.177h6.53a2.177,2.177,0,1,0,0-4.353h-6.53a2.177,2.177,0,0,0,0,4.353Zm23.944-2.177a2.177,2.177,0,0,0-2.177-2.177h-6.53a2.177,2.177,0,0,0,0,4.353h6.53A2.177,2.177,0,0,0,77.389,78.129Zm15.237,0a2.177,2.177,0,0,0-2.177-2.177h-6.53a2.177,2.177,0,0,0,0,4.353h6.53A2.177,2.177,0,0,0,92.626,78.129Zm-72.919,6.53h-6.53a2.177,2.177,0,1,0,0,4.353h6.53a2.177,2.177,0,1,0,0-4.353Zm15.237,0h-6.53a2.177,2.177,0,1,0,0,4.353h6.53a2.177,2.177,0,1,0,0-4.353Zm34.827,0H43.651a2.177,2.177,0,1,0,0,4.353h26.12a2.177,2.177,0,1,0,0-4.353Zm15.237,0h-6.53a2.177,2.177,0,0,0,0,4.353h6.53a2.177,2.177,0,0,0,0-4.353Zm8.707,0a2.177,2.177,0,1,0,0,4.353h6.53a2.177,2.177,0,1,0,0-4.353Z" transform="translate(8.237 3.525)" fill="#fff"/></g></svg>