<svg xmlns="http://www.w3.org/2000/svg" width="165.646" height="168.422" viewBox="0 0 165.646 168.422"><path d="M26.7,26.509a2.009,2.009,0,1,0,2.84-2.84l-8.6-8.6a2.008,2.008,0,1,0-2.84,2.84ZM60.334,16.73A2.029,2.029,0,0,0,62.363,14.7V2.529a2.029,2.029,0,0,0-4.058,0V14.7A2.029,2.029,0,0,0,60.334,16.73ZM92.551,27.118a1.907,1.907,0,0,0,1.42-.609l8.6-8.6a2.008,2.008,0,1,0-2.84-2.84l-8.6,8.6a1.948,1.948,0,0,0,0,2.84A1.907,1.907,0,0,0,92.551,27.118ZM17.73,55.277A2.029,2.029,0,0,0,15.7,53.248H3.529a2.029,2.029,0,1,0,0,4.058H15.7A2.029,2.029,0,0,0,17.73,55.277Zm69.83,31.284a38.555,38.555,0,1,0-54.453,0l7.183,7.223a6.208,6.208,0,0,1,1.785,4.058H40.047a2.029,2.029,0,0,0,0,4.058h2.029v4.058H40.047a2.029,2.029,0,1,0,0,4.058h2.029v4.058H40.047a2.029,2.029,0,1,0,0,4.058h2.029V120.2a6.086,6.086,0,0,0,6.086,6.086H72.507a6.086,6.086,0,0,0,6.086-6.086v-2.029h2.029a2.029,2.029,0,1,0,0-4.058H78.593v-4.058h2.029a2.029,2.029,0,1,0,0-4.058H78.593v-4.058h2.029a2.029,2.029,0,1,0,0-4.058H78.593a6.208,6.208,0,0,1,1.785-4.058ZM74.536,120.2a2.029,2.029,0,0,1-2.029,2.029H48.162a2.029,2.029,0,0,1-2.029-2.029v-2.029h28.4Zm0-6.086h-28.4v-4.058h28.4Zm0-8.115h-28.4v-4.058h28.4ZM77.5,90.9a10.225,10.225,0,0,0-2.962,6.979H62.363V73.536a9.819,9.819,0,0,0,8.115-11.28,2.029,2.029,0,1,0-4.058,0c0,5.437-1.582,7.344-6.086,7.344s-6.086-1.907-6.086-7.344a2.029,2.029,0,1,0-4.058,0,9.819,9.819,0,0,0,8.115,11.28V97.881H46.133A10.225,10.225,0,0,0,43.171,90.9L35.989,83.68a34.489,34.489,0,1,1,48.691,0ZM98.273,83.68a2.008,2.008,0,0,0-2.84,2.84l8.6,8.6a1.988,1.988,0,0,0,1.42.609,1.907,1.907,0,0,0,1.42-.609,1.948,1.948,0,0,0,0-2.84Zm-75.876,0-8.6,8.724a1.948,1.948,0,0,0,0,2.84,1.907,1.907,0,0,0,1.42.609,1.988,1.988,0,0,0,1.42-.609l8.6-8.6A2.008,2.008,0,0,0,22.4,83.8ZM117.14,53.248H104.968a2.029,2.029,0,1,0,0,4.058H117.14a2.029,2.029,0,0,0,0-4.058Z" transform="translate(63.755 -1.201) rotate(31)" fill="#fff" opacity="0.42"/></svg>