<svg xmlns="http://www.w3.org/2000/svg" width="143.667" height="143.129" viewBox="0 0 143.667 143.129"><path d="M114.011,18.8H19.96a3.61,3.61,0,0,0-3.56,3.56V85.7a3.61,3.61,0,0,0,3.56,3.56H63.425v16.318H43.547a3.56,3.56,0,1,0,0,7.121H90.572a3.56,3.56,0,1,0,0-7.121H70.546V89.264h43.465a3.61,3.61,0,0,0,3.56-3.56V22.36a3.61,3.61,0,0,0-3.56-3.56Zm-3.56,7.121V63.749H23.521V25.921h86.93Zm0,56.223H23.521V70.869h86.93V82.143Z" transform="translate(-21.943 67.524) rotate(-42)" fill="none" stroke="#fff" stroke-width="4" opacity="0.42"/></svg>