<svg xmlns="http://www.w3.org/2000/svg" width="134.217" height="113.35" viewBox="0 0 134.217 113.35"><g transform="matrix(0.809, 0.588, -0.588, 0.809, 12.884, -57.916)" opacity="0.42"><path d="M99.891,176.3A27.8,27.8,0,0,1,76.1,162.6a27.222,27.222,0,0,1-3.7-13.767V124.14c0-5.507-.352-11.058,1.344-16.389A27.479,27.479,0,0,1,120.487,98.1a27.441,27.441,0,0,1,6.344,12.8,36.048,36.048,0,0,1,.529,7.225v27.931a57.823,57.823,0,0,1-.154,5.859,27.731,27.731,0,0,1-16.367,22.16A27.19,27.19,0,0,1,99.891,176.3a1.323,1.323,0,0,0,0,2.643,30.126,30.126,0,0,0,29.958-27.072,51.908,51.908,0,0,0,.154-5.859V126.276c0-5.132.374-10.485-.507-15.552a30.133,30.133,0,0,0-59.739,4.6c-.154,4.714,0,9.45,0,14.142v18.195a36.023,36.023,0,0,0,.947,8.679,30.192,30.192,0,0,0,29.187,22.6A1.323,1.323,0,0,0,99.891,176.3Z" transform="translate(0 -63.472)" fill="#fff" stroke="#dfd5d5" stroke-width="2"/><path d="M191.6,166.489c-2.335,0-1.674-3.877-1.674-5.331V143.14c0-1.278.815-2.335,2.2-1.982,1.123.286,1.123,1.454,1.123,2.357v19.561c.022,1.366.264,3.326-1.652,3.414-1.7.088-1.7,2.731,0,2.643a4.387,4.387,0,0,0,4.317-4.339V144.109a12.743,12.743,0,0,0-.066-2.049,4.3,4.3,0,0,0-8.547.749v21.962a4.368,4.368,0,0,0,4.317,4.317A1.3,1.3,0,0,0,191.6,166.489Z" transform="translate(-91.704 -104.236)" fill="#fff" stroke="#dfd5d5" stroke-width="2"/><g transform="translate(98.548 4.75)"><path d="M251.209,6.039a6.523,6.523,0,0,1-6.74,6.432H209.841a9.143,9.143,0,0,0-7.423,3.789c-1.7,2.357-1.718,4.956-1.718,7.732a1.323,1.323,0,0,0,2.643,0,14.575,14.575,0,0,1,.4-4.692,6.534,6.534,0,0,1,5.176-4.119,26.459,26.459,0,0,1,4.383-.044h30.618a11.591,11.591,0,0,0,4.648-.837,9.171,9.171,0,0,0,5.287-8.26,1.322,1.322,0,0,0-2.643,0Z" transform="translate(-200.7 -4.75)" fill="#fff" stroke="#dfd5d5" stroke-width="2"/></g></g></svg>