<svg xmlns="http://www.w3.org/2000/svg" width="129.182" height="129.182" viewBox="0 0 129.182 129.182"><path d="M25.661,11.651A1.859,1.859,0,1,0,23.8,9.793,1.859,1.859,0,0,0,25.661,11.651ZM83.276,50.681a1.859,1.859,0,1,0-1.859,1.859A1.859,1.859,0,0,0,83.276,50.681ZM33.1,74.842a9.293,9.293,0,1,0,9.293,9.293A9.293,9.293,0,0,0,33.1,74.842Zm0,14.868a5.576,5.576,0,1,1,5.576-5.576A5.576,5.576,0,0,1,33.1,89.71Zm7.434-78.059a1.859,1.859,0,1,0-1.859-1.859A1.859,1.859,0,0,0,40.529,11.651Zm-7.434,0a1.859,1.859,0,1,0-1.859-1.859A1.859,1.859,0,0,0,33.1,11.651Zm70.625,7.434a1.859,1.859,0,1,0,1.859,1.859A1.859,1.859,0,0,0,103.72,19.085ZM51.681,15.368H14.51a5.576,5.576,0,0,0-5.576,5.576V54.4a5.576,5.576,0,0,0,5.576,5.576H51.681A5.576,5.576,0,0,0,57.256,54.4V20.944A5.576,5.576,0,0,0,51.681,15.368ZM53.539,54.4a1.859,1.859,0,0,1-1.859,1.859H14.51A1.859,1.859,0,0,1,12.651,54.4V20.944a1.859,1.859,0,0,1,1.859-1.859H51.681a1.859,1.859,0,0,1,1.859,1.859Zm59.473-33.454a9.293,9.293,0,1,0-14.868,7.434h0V39.529A1.859,1.859,0,0,0,100,41.388h1.859V67.147A15.166,15.166,0,0,1,86.733,82.276H83.016V71.125h2.119a1.9,1.9,0,0,0,1.859-1.859V58.115h0a9.293,9.293,0,1,0-11.151,0h0V69.266A1.859,1.859,0,0,0,77.7,71.125h1.859V82.276H64.69V9.793A9.293,9.293,0,0,0,55.4.5H10.793A9.293,9.293,0,0,0,1.5,9.793V102.72a9.293,9.293,0,0,0,9.293,9.293H55.4a9.293,9.293,0,0,0,9.293-9.293V97.144h2.119a16.429,16.429,0,0,0,15.5-11.151h4.423a18.846,18.846,0,0,0,18.846-18.846V41.388h1.859a1.9,1.9,0,0,0,1.859-1.859V28.378h0A9.33,9.33,0,0,0,113.013,20.944ZM60.973,102.72A5.576,5.576,0,0,1,55.4,108.3H10.793a5.576,5.576,0,0,1-5.576-5.576V9.793a5.576,5.576,0,0,1,5.576-5.576H55.4a5.576,5.576,0,0,1,5.576,5.576Zm5.836-9.293H64.69V85.993H78.369A12.75,12.75,0,0,1,66.809,93.427Zm9.033-42.747a5.576,5.576,0,1,1,5.576,5.576,5.576,5.576,0,0,1-5.576-5.576Zm5.576,16.727H79.559V59.973h3.717v7.434Zm22.3-29.737h-1.859V30.237h3.717v7.434Zm0-11.151a5.576,5.576,0,1,1,5.576-5.576A5.576,5.576,0,0,1,103.72,26.52Zm-77.092.3a1.859,1.859,0,0,0-1.859,0,1.9,1.9,0,0,0-.966,1.561V46.964a1.9,1.9,0,0,0,.966,1.636,1.8,1.8,0,0,0,1.859-.074L41.5,39.232a1.821,1.821,0,0,0,0-3.122Zm.892,16.8V31.724l9.516,5.947ZM33.1,63.69A20.444,20.444,0,1,0,53.539,84.134,20.444,20.444,0,0,0,33.1,63.69Zm0,37.171A16.727,16.727,0,1,1,49.822,84.134,16.727,16.727,0,0,1,33.1,100.861Z" transform="matrix(0.985, -0.174, 0.174, 0.985, -1.564, 19.132)" fill="#fff" opacity="0.42"/></svg>