<svg xmlns="http://www.w3.org/2000/svg" width="151.786" height="177.101" viewBox="0 0 151.786 177.101"><path d="M183.074,15.042H155.929v-.96a4.558,4.558,0,0,0-4.553-4.553h-4.7a11.552,11.552,0,0,0-22.747,0h-4.7a4.558,4.558,0,0,0-4.553,4.553v.96H87.538a2.021,2.021,0,0,0-2.021,2.021V147.506a2.021,2.021,0,0,0,2.021,2.021h95.536a2.021,2.021,0,0,0,2.021-2.021V17.062A2.021,2.021,0,0,0,183.074,15.042Zm-66.37,16.9h37.2a2.021,2.021,0,0,0,2.021-2.021V26.429h17.778V138.139H96.9V26.429h17.779v3.493A2.021,2.021,0,0,0,116.7,31.942Zm2.021-17.861a.518.518,0,0,1,.512-.512h6.539a2.021,2.021,0,0,0,2.021-2.021,7.51,7.51,0,0,1,15.02,0,2.021,2.021,0,0,0,2.021,2.021h6.539a.518.518,0,0,1,.512.512V27.9H118.724Zm62.328,131.4H89.558V19.083h25.125v3.3h-19.8a2.021,2.021,0,0,0-2.021,2.021V140.16a2.021,2.021,0,0,0,2.021,2.021h80.844a2.021,2.021,0,0,0,2.021-2.021V24.408a2.021,2.021,0,0,0-2.021-2.021h-19.8v-3.3h25.124v126.4h0ZM135.305,5.691a5.861,5.861,0,1,0,5.861,5.861A5.868,5.868,0,0,0,135.305,5.691Zm0,7.68a1.819,1.819,0,1,1,1.819-1.819A1.82,1.82,0,0,1,135.305,13.371Zm-14.959,40.17a2.021,2.021,0,0,1,2.021-2.021h42.256a2.021,2.021,0,1,1,0,4.041H122.367A2.021,2.021,0,0,1,120.346,53.541Zm-5.664-6.263a2.02,2.02,0,1,1,3.5,2.02l-5.569,9.647a2.02,2.02,0,0,1-2.76.739l-4.873-2.814a2.02,2.02,0,0,1,2.02-3.5l3.124,1.8Zm5.664,25.712a2.021,2.021,0,0,1,2.021-2.021h42.256a2.021,2.021,0,1,1,0,4.041H122.367A2.021,2.021,0,0,1,120.346,72.99Zm-2.166-4.243-5.569,9.645a2.02,2.02,0,0,1-2.76.739l-4.873-2.813A2.02,2.02,0,1,1,107,72.82l3.123,1.8,4.56-7.9a2.02,2.02,0,1,1,3.5,2.021Zm2.166,23.691a2.021,2.021,0,0,1,2.021-2.021h42.256a2.021,2.021,0,1,1,0,4.041H122.367A2.021,2.021,0,0,1,120.346,92.439ZM118.18,88.2l-5.569,9.645a2.02,2.02,0,0,1-2.76.739l-4.873-2.813a2.02,2.02,0,1,1,2.021-3.5l3.123,1.8,4.56-7.9a2.02,2.02,0,1,1,3.5,2.021Zm2.166,23.69a2.021,2.021,0,0,1,2.021-2.021h42.256a2.021,2.021,0,1,1,0,4.041H122.367A2.021,2.021,0,0,1,120.346,111.886Zm-2.166-4.243-5.569,9.647a2.02,2.02,0,0,1-2.76.739l-4.873-2.814a2.02,2.02,0,0,1,2.02-3.5l3.124,1.8,4.559-7.9a2.021,2.021,0,0,1,3.5,2.021Z" transform="matrix(0.914, 0.407, -0.407, 0.914, -17.306, -34.783)" fill="#fff" opacity="0.42"/></svg>