<svg xmlns="http://www.w3.org/2000/svg" width="93.653" height="131.87" viewBox="0 0 93.653 131.87"><g transform="translate(-13.579 -1.358) rotate(3)" opacity="0.42"><path d="M100,54h2V76a3.861,3.861,0,0,1-3.7,4H95.787a9.961,9.961,0,0,1-1.806,4H98.3a7.861,7.861,0,0,0,7.7-8V54h2a2,2,0,0,0,0-4h-8a2,2,0,0,0,0,4ZM20,54h2V76a7.861,7.861,0,0,0,7.7,8H34.02a9.963,9.963,0,0,1-1.806-4H29.7A3.861,3.861,0,0,1,26,76V54h2a2,2,0,0,0,0-4H20a2,2,0,0,0,0,4Z" fill="#fff"/><path d="M36,62a6.007,6.007,0,0,0-6,6v2a6.007,6.007,0,0,0,6,6v2a6.007,6.007,0,0,0,6,6h9v3.778A4.515,4.515,0,0,0,55.75,92H57.6l-4.657,4H49a2,2,0,0,0,0,4h4.687a2,2,0,0,0,1.3-.483L62,93.5V104H47.806a6.02,6.02,0,0,0-4.386,1.906l-7.975,8.544a7.024,7.024,0,1,0,3.2,2.431l7.7-8.246A2.007,2.007,0,0,1,47.806,108H62v6.295a7,7,0,1,0,4,0V108H80.194a2.007,2.007,0,0,1,1.462.635l7.7,8.246a7.031,7.031,0,1,0,3.2-2.432l-7.975-8.544A6.02,6.02,0,0,0,80.194,104H66V92h6.25A4.515,4.515,0,0,0,77,87.778V84h9a6.007,6.007,0,0,0,6-6V76a6.007,6.007,0,0,0,6-6V68a6.007,6.007,0,0,0-6-6H73V58h1.077c10.242,0,15.3-5.38,17.732-9.894A25.758,25.758,0,0,0,94.7,38.228c1.521-16.826-2.976-27-7.015-32.581A13.7,13.7,0,0,0,76.624,0H51.369A13.694,13.694,0,0,0,40.309,5.648C36.27,11.226,31.777,21.4,33.3,38.219A25.762,25.762,0,0,0,36.19,48.1C38.629,52.62,43.683,58,53.925,58H55v4Zm-3,62a3,3,0,1,1,3-3,3,3,0,0,1-3,3Zm62-6a3,3,0,1,1-3,3,3,3,0,0,1,3-3Zm-28,3a3,3,0,1,1-3-3,3,3,0,0,1,3,3Zm5.25-33H55.75a1.313,1.313,0,0,1-.75-.222V84H73.006l.006,3.715A.946.946,0,0,1,72.25,88ZM88,78a2,2,0,0,1-2,2H42a2,2,0,0,1-2-2V76H88ZM53.925,54c-7.819,0-12.007-3.709-14.212-7.794a21.906,21.906,0,0,1-2.426-8.349C35.845,21.972,40.139,12.7,43.549,7.994A9.651,9.651,0,0,1,51.369,4H76.624a9.652,9.652,0,0,1,7.821,3.994c3.41,4.707,7.707,13.977,6.271,29.863a21.9,21.9,0,0,1-2.426,8.349C86.084,50.291,81.9,54,74.077,54ZM69,58v4H59V58Zm23,8a2,2,0,0,1,2,2v2a2,2,0,0,1-2,2H36a2,2,0,0,1-2-2V68a2,2,0,0,1,2-2Z" fill="#fff"/><path d="M54,31H74a2,2,0,0,0,0-4H54a2,2,0,0,0,0,4Zm2-10H72a2,2,0,0,0,0-4H56a2,2,0,0,0,0,4ZM78,39a2,2,0,0,0-2-2H52a2,2,0,0,0,0,4H76a2,2,0,0,0,2-2Z" fill="#fff"/></g></svg>