<svg xmlns="http://www.w3.org/2000/svg" width="151.878" height="151.878" viewBox="0 0 151.878 151.878"><g transform="translate(0 48.3) rotate(-25)" opacity="0.42"><rect width="114.286" height="114.286" fill="none"/><path d="M232.072,58.429a8.927,8.927,0,0,0-8.929-8.929H187.429a8.927,8.927,0,0,0-8.929,8.929V137a8.927,8.927,0,0,0,8.929,8.929h35.715A8.927,8.927,0,0,0,232.072,137Zm-39.286-5.357h-5.357a5.359,5.359,0,0,0-5.357,5.357V137a5.359,5.359,0,0,0,5.357,5.357h35.715A5.359,5.359,0,0,0,228.5,137V58.429a5.359,5.359,0,0,0-5.357-5.357h-5.357v1.786a5.353,5.353,0,0,1-5.357,5.357H198.143a5.353,5.353,0,0,1-5.357-5.357Zm5.357,85.715h14.286a1.786,1.786,0,0,0,0-3.571H198.143a1.786,1.786,0,0,0,0,3.571Zm-1.786-85.715v1.786a1.78,1.78,0,0,0,1.786,1.786h14.286a1.78,1.78,0,0,0,1.786-1.786V53.071Z" transform="translate(-148.143 -40.571)" fill="#fff" fill-rule="evenodd"/></g></svg>