<svg xmlns="http://www.w3.org/2000/svg" width="96.161" height="128.282" viewBox="0 0 96.161 128.282"><path d="M64.18,23.151H31.727A12.008,12.008,0,0,0,19.733,35.145V77.475A12.008,12.008,0,0,0,31.727,89.469H64.18A12.008,12.008,0,0,0,76.174,77.475V35.145A12.008,12.008,0,0,0,64.18,23.151ZM74.763,77.475A10.594,10.594,0,0,1,64.18,88.058H31.727A10.594,10.594,0,0,1,21.144,77.475V35.145A10.594,10.594,0,0,1,31.727,24.562H64.18A10.594,10.594,0,0,1,74.763,35.145Zm6.35-44.447h-.86a16.256,16.256,0,0,0-11.046-13.3A29.047,29.047,0,0,1,65.591,5.752,4.3,4.3,0,0,0,61.982,1.5l-.274-.045a84.375,84.375,0,0,0-27.794.039,4.3,4.3,0,0,0-3.6,4.262A29.047,29.047,0,0,1,26.7,19.725a16.249,16.249,0,0,0-11.2,15.42V77.475A16.249,16.249,0,0,0,26.7,92.9a29.047,29.047,0,0,1,3.615,13.973,4.3,4.3,0,0,0,3.61,4.255l.274.045a84.307,84.307,0,0,0,27.794-.039,4.3,4.3,0,0,0,3.6-4.262A29.047,29.047,0,0,1,69.206,92.9a16.249,16.249,0,0,0,11.2-15.42v-26.1h.706a3.531,3.531,0,0,0,3.528-3.528V36.556a3.531,3.531,0,0,0-3.528-3.528ZM31.727,5.743a2.894,2.894,0,0,1,2.421-2.862,83,83,0,0,1,27.329-.039l.274.045A2.893,2.893,0,0,1,64.18,5.752a30.448,30.448,0,0,0,3.169,13.479c-.2-.04-.4-.058-.6-.09-.315-.05-.626-.109-.946-.141q-.805-.081-1.618-.082H31.727A15.97,15.97,0,0,0,30.109,19c-.32.032-.632.091-.946.141-.2.032-.4.05-.6.09A30.456,30.456,0,0,0,31.727,5.743ZM64.18,106.877a2.894,2.894,0,0,1-2.421,2.862,82.99,82.99,0,0,1-27.329.039l-.274-.045a2.893,2.893,0,0,1-2.429-2.863,30.448,30.448,0,0,0-3.169-13.479c.2.04.4.058.6.09.315.05.626.109.946.141q.805.081,1.618.082H64.18A15.972,15.972,0,0,0,65.8,93.62c.32-.032.632-.091.946-.141.2-.032.4-.05.6-.09A30.456,30.456,0,0,0,64.18,106.877ZM79,77.475A14.841,14.841,0,0,1,68.619,91.61l-.086.027c-.4.124-.811.226-1.226.316-.145.031-.29.055-.436.082-.305.056-.613.1-.925.141-.141.017-.282.034-.424.048-.443.04-.889.068-1.342.068H31.727c-.453,0-.9-.028-1.342-.068-.142-.013-.283-.03-.424-.048-.311-.037-.619-.085-.925-.141-.145-.027-.291-.05-.436-.082-.415-.09-.825-.192-1.226-.316l-.086-.027A14.841,14.841,0,0,1,16.911,77.475V35.145A14.841,14.841,0,0,1,27.288,21.01l.086-.027c.4-.124.811-.226,1.226-.316.145-.031.29-.055.436-.082.305-.056.613-.1.925-.141.141-.017.282-.034.424-.048.443-.04.889-.068,1.342-.068H64.18c.453,0,.9.028,1.342.068.142.013.283.03.424.048.311.037.619.085.925.141.145.027.291.05.436.082.415.09.825.192,1.226.316l.086.027A14.841,14.841,0,0,1,79,35.145Zm4.233-29.631a2.119,2.119,0,0,1-2.117,2.117h-.706V34.439h.706a2.119,2.119,0,0,1,2.117,2.117Z" transform="matrix(0.974, -0.225, 0.225, 0.974, -13.374, 20.537)" fill="#fff" stroke="#dfd5d5" stroke-width="3" opacity="0.42"/></svg>