<svg xmlns="http://www.w3.org/2000/svg" width="167.253" height="123.455" viewBox="0 0 167.253 123.455"><g transform="matrix(0.995, -0.105, 0.105, 0.995, -1.015, 7.986)" opacity="0.42"><path d="M149.531,10.47H7.589A5.385,5.385,0,0,0,2.13,15.777V33.344a5.385,5.385,0,0,0,5.459,5.307H8.681v70.16a5.385,5.385,0,0,0,5.459,5.307H28.717a5.385,5.385,0,0,0,5.459-5.307V38.651H72.391v70.16a5.385,5.385,0,0,0,5.459,5.307h71.681a5.385,5.385,0,0,0,5.459-5.307V15.777A5.385,5.385,0,0,0,149.531,10.47ZM13.049,21.084H144.072v6.952H13.049ZM23.257,103.5H19.6V38.651h3.658ZM144.072,38.651V65.77H83.31V38.651Zm0,64.853H83.31V76.384h60.762Z" transform="translate(0 0)" fill="none" stroke="#dfd5d5" stroke-width="4"/><path d="M24.489,29.025H66.883a5.847,5.847,0,0,0,0-11.695H24.489a5.847,5.847,0,0,0,0,11.695Zm-.7,39H66.181a5.847,5.847,0,1,0,0-11.695H23.787a5.847,5.847,0,1,0,0,11.695Z" transform="translate(65.77 26.588)" fill="none" stroke="#dfd5d5" stroke-width="4"/></g></svg>