<svg xmlns="http://www.w3.org/2000/svg" width="152.774" height="177.837" viewBox="0 0 152.774 177.837"><path d="M109.244,81.718,81.525,39.6a2.785,2.785,0,0,0-.306-.279l7.3-4.569a8.357,8.357,0,0,0,2.647-11.533L82.305,9.064A8.357,8.357,0,0,0,70.8,6.278L47.176,21.043a2.786,2.786,0,0,0-.5.5,31.257,31.257,0,0,0-8.692-3.566,30.059,30.059,0,0,0-23.289,3.677A2.786,2.786,0,0,0,13.8,25.5L22.94,40.1A12.926,12.926,0,0,0,18.51,57.844a12.2,12.2,0,0,0,7.745,5.321,13.037,13.037,0,0,0,2.786.251A13.929,13.929,0,0,0,36.2,61.41l10.057,16.1A2.786,2.786,0,0,0,50.1,78.4,30.644,30.644,0,0,0,64.2,49.765a3.566,3.566,0,0,0,.669-.306L76.622,42.1a.56.56,0,0,0,.2.5l27.691,42.066a9.249,9.249,0,0,1,1.532,7.494,11.143,11.143,0,0,1-6.24,6.519L78.934,109.1a29.641,29.641,0,0,0-16.269,23.958H59.684a16.715,16.715,0,0,0-16.715,16.715v2.786a2.786,2.786,0,0,0,2.786,2.786h39a2.786,2.786,0,0,0,2.786-2.786v-2.786a16.715,16.715,0,0,0-16.715-16.715H68.237a24.1,24.1,0,0,1,13.2-18.916l20.866-10.419a16.381,16.381,0,0,0,9.11-10,14.82,14.82,0,0,0-2.173-12.007ZM27.4,57.844a6.63,6.63,0,0,1-4.151-2.925,7.327,7.327,0,0,1,2.647-9.89l7.382,11.812a8,8,0,0,1-5.878,1ZM49.46,72.219,39.32,55.894h0l-10-15.991h0L20.1,25.166a24.543,24.543,0,0,1,16.576-1.671A25.936,25.936,0,0,1,52.58,35.084l.891,1.421,1.365,2.145A25.6,25.6,0,0,1,49.46,72.107ZM64.309,43.413l-4.792-7.856h0l-1.2-1.894L52.5,24.414,73.753,11.126a2.786,2.786,0,0,1,3.844.891l8.859,14.152a2.824,2.824,0,0,1-.891,3.844h0ZM81.971,149.775H48.541a11.143,11.143,0,0,1,11.143-11.143H70.828A11.143,11.143,0,0,1,81.971,149.775Z" transform="translate(-14.258 42.699) rotate(-25)" fill="#fff" opacity="0.42"/></svg>