<svg xmlns="http://www.w3.org/2000/svg" width="95.224" height="95.217" viewBox="0 0 95.224 95.217"><path d="M99.893,11.339a11.346,11.346,0,0,0-16.028,0C9.546,85.659,13.994,80.971,13.658,82.029l-5.519,17.2A3.072,3.072,0,0,0,12,103.094c18.631-5.978,17.7-5.537,18.43-6.272L65.874,61.389a3.072,3.072,0,1,0-4.344-4.344L26.615,91.954l-10.8,3.465,3.465-10.8L74.841,29.053l7.339,7.339L76.071,42.5a3.072,3.072,0,0,0,4.344,4.344l19.478-19.48a11.327,11.327,0,0,0,0-16.028ZM95.549,23.023l-9.023,9.023-7.343-7.337,9.023-9.023a5.19,5.19,0,1,1,7.343,7.337Z" transform="translate(-7.991 -8.025)" fill="#fff"/></svg>