<svg xmlns="http://www.w3.org/2000/svg" width="128.07" height="135.136" viewBox="0 0 128.07 135.136"><path d="M44.7,11.105a2.221,2.221,0,1,0-2.221-2.221A2.221,2.221,0,0,0,44.7,11.105Zm0,77.737a4.442,4.442,0,1,0,4.442,4.442A4.442,4.442,0,0,0,44.7,88.842ZM75.795,13.326H13.605a2.221,2.221,0,0,0-2.221,2.221V82.179A2.221,2.221,0,0,0,13.605,84.4h62.19a2.221,2.221,0,0,0,2.221-2.221V15.547A2.221,2.221,0,0,0,75.795,13.326ZM73.574,79.958H15.826V17.768H73.574ZM75.795,0H13.605A11.105,11.105,0,0,0,2.5,11.105v84.4a11.105,11.105,0,0,0,11.105,11.105h62.19A11.105,11.105,0,0,0,86.9,95.505v-84.4A11.105,11.105,0,0,0,75.795,0Zm6.663,95.505a6.663,6.663,0,0,1-6.663,6.663H13.605a6.663,6.663,0,0,1-6.663-6.663v-84.4a6.663,6.663,0,0,1,6.663-6.663h62.19a6.663,6.663,0,0,1,6.663,6.663Z" transform="matrix(0.848, 0.53, -0.53, 0.848, 54.375, -1.325)" fill="#fff" opacity="0.42"/></svg>